<?xml version="1.0" encoding="UTF-8"?>
<svg width="64" height="64" viewBox="0 0 420 420" xmlns="http://www.w3.org/2000/svg">
 <path fill="#fff" d="m352 118.29c0 12.559-4.9883 24.605-13.871 33.488-8.8789 8.8789-20.926 13.871-33.484 13.871-12.562 0-24.605-4.9922-33.488-13.871-8.8828-8.8828-13.871-20.93-13.871-33.488s4.9883-24.605 13.871-33.488c8.8828-8.8789 20.926-13.871 33.488-13.871 12.555 0.015625 24.59 5.0117 33.469 13.887 8.8789 8.8789 13.875 20.918 13.887 33.473zm-236.79 142.07c-12.559 0-24.605 4.9883-33.488 13.871-8.8789 8.8828-13.871 20.926-13.871 33.488 0 12.559 4.9922 24.605 13.871 33.484 8.8828 8.8828 20.93 13.871 33.488 13.871s24.605-4.9883 33.488-13.871c8.8789-8.8789 13.871-20.926 13.871-33.484-0.015625-12.559-5.0117-24.594-13.887-33.473-8.8789-8.8789-20.918-13.871-33.473-13.887zm293.62-217.85v340.98c-0.007812 7.5312-3.0039 14.754-8.332 20.082s-12.551 8.3242-20.082 8.332h-340.98c-7.5312-0.007812-14.754-3.0039-20.082-8.332-5.3281-5.3281-8.3242-12.551-8.332-20.082v-340.98c0.007813-7.5312 3.0039-14.754 8.332-20.082 5.3281-5.3281 12.551-8.3242 20.082-8.332h340.98c7.5312 0.007813 14.754 3.0039 20.082 8.332 5.3281 5.3281 8.3242 12.551 8.332 20.082zm-307.02 75.773-40.66 40.66c-3.6875 3.7031-3.6836 9.6914 0.007812 13.387 3.6953 3.6914 9.6836 3.6953 13.387 0.007813l40.66-40.66 40.66 40.66c3.7031 3.6875 9.6914 3.6836 13.387-0.007813 3.6914-3.6953 3.6953-9.6836 0.007813-13.387l-40.66-40.66 40.66-40.66c3.6875-3.7031 3.6836-9.6914-0.007813-13.387-3.6953-3.6914-9.6836-3.6953-13.387-0.007812l-40.66 40.66-40.66-40.66c-3.7031-3.6875-9.6914-3.6836-13.387 0.007812-3.6914 3.6953-3.6953 9.6836-0.007812 13.387zm79.695 189.43c0-17.586-6.9844-34.449-19.418-46.883-12.434-12.434-29.297-19.418-46.883-19.418-17.586 0-34.449 6.9844-46.883 19.418-12.434 12.434-19.418 29.297-19.418 46.883 0 17.582 6.9844 34.445 19.418 46.883 12.434 12.434 29.297 19.418 46.883 19.418 17.578-0.019531 34.43-7.0117 46.859-19.441 12.43-12.43 19.422-29.281 19.441-46.859zm136.52 0 40.664-40.664c3.6875-3.6992 3.6836-9.6875-0.011719-13.383-3.6953-3.6953-9.6836-3.6992-13.383-0.007813l-40.66 40.66-40.664-40.66c-3.6992-3.6914-9.6875-3.6875-13.383 0.007813s-3.6992 9.6836-0.007813 13.383l40.66 40.664-40.66 40.66c-3.6914 3.6992-3.6875 9.6875 0.007813 13.383 3.6953 3.6953 9.6836 3.6992 13.383 0.011719l40.664-40.66 40.66 40.66c3.6992 3.6875 9.6875 3.6836 13.383-0.011719 3.6953-3.6953 3.6992-9.6836 0.011719-13.383zm52.91-94.719c0-2.5117-0.99609-4.9219-2.7734-6.6953-1.7773-1.7773-4.1875-2.7773-6.6992-2.7734h-142.07v-142.07c0-5.2344-4.2383-9.4727-9.4727-9.4727-5.2305 0-9.4688 4.2383-9.4688 9.4727v142.07h-142.07c-5.2344 0-9.4727 4.2383-9.4727 9.4688 0 5.2344 4.2383 9.4727 9.4727 9.4727h142.07v142.07c0 5.2305 4.2383 9.4727 9.4688 9.4727 5.2344 0 9.4727-4.2422 9.4727-9.4727v-142.07h142.07c2.5117 0 4.9219-0.99609 6.6992-2.7734 1.7773-1.7773 2.7734-4.1875 2.7734-6.6992zm0-94.715c0-17.586-6.9844-34.449-19.418-46.883-12.438-12.434-29.301-19.418-46.883-19.418-17.586 0-34.449 6.9844-46.883 19.418-12.434 12.434-19.418 29.297-19.418 46.883 0 17.586 6.9844 34.449 19.418 46.883 12.434 12.434 29.297 19.418 46.883 19.418 17.578-0.019532 34.43-7.0117 46.859-19.441 12.43-12.43 19.422-29.281 19.441-46.859z"/>
</svg>
